<?xml version="1.0" standalone="no"?>
<!DOCTYPE svg PUBLIC "-//W3C//DTD SVG 1.1//EN" "http://www.w3.org/Graphics/SVG/1.1/DTD/svg11.dtd" >
<svg xmlns="http://www.w3.org/2000/svg">
<metadata></metadata>
<defs>
<font id="riffic_freebold" horiz-adv-x="1599" >
<font-face units-per-em="2048" ascent="1638" descent="-410" />
<missing-glyph horiz-adv-x="512" />
<glyph horiz-adv-x="73" />
<glyph horiz-adv-x="73" />
<glyph unicode="&#xd;" horiz-adv-x="73" />
<glyph unicode=" "  horiz-adv-x="512" />
<glyph unicode="&#x09;" horiz-adv-x="512" />
<glyph unicode="&#xa0;" horiz-adv-x="512" />
<glyph unicode="!" horiz-adv-x="514" d="M18 238q0 -68 33 -121q33 -57 89.5 -91t119.5 -34q98 0 167 74.5t69 183.5q0 100 -61.5 158.5t-164.5 58.5q-111 0 -181.5 -64.5t-70.5 -164.5zM31 1556l37 -1036l403 17l8 1019h-448z" />
<glyph unicode="&#x22;" horiz-adv-x="751" d="M18 1620l72 -559h264v590zM401 1061l248 -37l84 616l-332 -49v-530z" />
<glyph unicode="#" horiz-adv-x="1634" d="M18 1311l23 -369l219 -2l2 -291l-242 -2l48 -395h198l2 -264l432 4l-6 260h258l9 -248l356 -4v252h299l-47 405l-250 -2v275l246 -2l-45 383h-199v243l-408 -30l7 -213h-254l-7 243l-405 -38l2 -205h-238zM676 936l256 -2l8 -281l-256 -2z" />
<glyph unicode="$" horiz-adv-x="1011" d="M41 371q98 -113 278 -162l-24 -211h450l-20 233q125 51 199.5 149.5t74.5 213.5q0 145 -116.5 227t-325.5 82q-143 0 -143 51q0 29 40 47.5t101 18.5q66 0 136.5 -23.5t164.5 -74.5l143 227q-127 109 -278 151v259l-399 -43l34 -222q-123 -45 -197.5 -134t-74.5 -191 q0 -90 55 -168t146.5 -124t193.5 -46q29 0 37 2q66 0 96 -10q29 -10 29 -35q0 -31 -44 -52.5t-108 -21.5q-66 0 -129 23.5t-112 66.5z" />
<glyph unicode="%" horiz-adv-x="1955" d="M18 1212q0 -106 62 -198q59 -94 155.5 -149.5t202.5 -55.5q107 0 195 57q90 57 143 152.5t53 202.5q0 104 -49 184q-51 78 -139 120t-199 42q-121 0 -213 -45q-98 -47 -154.5 -128t-56.5 -182zM307 1214q0 45 34 77t81 32q49 0 85 -35t36 -82t-34 -81.5t-77 -34.5 q-47 0 -86 38.5t-39 85.5zM500 186l407 -209l549 1584l-377 -17zM1143 371q0 -106 55 -191q53 -86 144.5 -134t195.5 -48q107 0 201 47q92 47 145 128t53 177q0 106 -59 203q-61 98 -158.5 156.5t-206.5 58.5q-100 0 -184 -55q-86 -55 -136 -146.5t-50 -195.5zM1405 360 q0 53 32.5 88t86.5 35q51 0 84.5 -33.5t33.5 -84.5q0 -49 -38.5 -84t-92.5 -35q-49 0 -77.5 30.5t-28.5 83.5z" />
<glyph unicode="&#x26;" horiz-adv-x="1212" d="M18 1108q0 -109 43 -197t115 -123q-70 -25 -110.5 -109.5t-40.5 -199.5q0 -143 71 -258q72 -113 198 -176t284 -63q162 0 296 67q133 68 210 178.5t77 235.5q0 106 -37 188l58 -6l12 246h-522v-195l12 -2q47 -8 84 -74.5t37 -136.5q0 -66 -60.5 -112.5t-144.5 -46.5 q-80 0 -136 50t-56 122q0 49 28 100q29 47 76 76.5t98 29.5l-6 211q-88 0 -146.5 53.5t-58.5 131.5q0 57 45 101t105 44q80 0 129 -55t47 -150l315 144q0 113 -63 200q-66 92 -177.5 143.5t-250.5 51.5q-147 0 -270 -59q-123 -61 -192 -169t-69 -241z" />
<glyph unicode="'" horiz-adv-x="387" d="M18 1657l72 -543h279v567z" />
<glyph unicode="(" horiz-adv-x="692" d="M18 825q0 -291 87.5 -564t246.5 -462l322 203q-152 188 -220.5 391t-68.5 451q0 258 63.5 448.5t202.5 358.5l-284 184q-164 -164 -256.5 -436.5t-92.5 -573.5z" />
<glyph unicode=")" horiz-adv-x="692" d="M18 2l322 -203q160 189 247 462.5t87 563.5q0 301 -92.5 573.5t-255.5 436.5l-285 -184q139 -168 202.5 -358.5t63.5 -448.5q0 -248 -68.5 -451t-220.5 -391z" />
<glyph unicode="*" horiz-adv-x="589" d="M18 1409l144 -74l-96 -147l120 -84l109 160l94 -166l131 73l-92 164l143 60l-69 143l-125 -51l-4 155l-150 -10l-6 -145l-133 65z" />
<glyph unicode="+" horiz-adv-x="1163" d="M18 756l25 -381l350 -8l-6 -377l389 26l-4 342l346 -8l27 389l-379 6l-4 349l-356 22l-7 -366z" />
<glyph unicode="," horiz-adv-x="638" d="M18 -207l301 -51l302 555l-392 147z" />
<glyph unicode="-" horiz-adv-x="804" d="M18 797l17 -406l751 6l-6 404z" />
<glyph unicode="." horiz-adv-x="483" d="M14 231q0 -98 66.5 -168.5t163.5 -70.5q96 0 158.5 71.5t62.5 176.5q0 102 -61.5 164.5t-151.5 62.5q-63 0 -115 -31q-55 -31 -89 -85t-34 -120z" />
<glyph unicode="/" horiz-adv-x="1087" d="M18 61l392 -61l659 1559h-410z" />
<glyph unicode="0" horiz-adv-x="1421" d="M18 778q0 -209 99 -391q98 -184 262 -292.5t346 -108.5q184 0 340 106q156 104 247 287.5t91 398.5q0 211 -92 391q-92 184 -250 292t-336 108q-182 0 -346 -111t-262.5 -295t-98.5 -385zM457 778q0 104 35 193q35 86 95 134t138 48q109 0 173.5 -100.5t64.5 -274.5 q0 -156 -64.5 -247t-173.5 -91q-125 0 -196.5 91.5t-71.5 246.5z" />
<glyph unicode="1" horiz-adv-x="774" d="M18 1128h289v-1126h449v1524l-291 30h-447v-428z" />
<glyph unicode="2" horiz-adv-x="1247" d="M27 350l34 -352l1168 2l-43 369l-395 -7q340 346 339 660q0 158 -63 283q-66 125 -184.5 194.5t-276.5 69.5q-160 0 -287 -72q-129 -72 -203.5 -195.5t-82.5 -279.5l375 -66q8 86 60 152t118 66q53 0 91 -48.5t38 -111.5q0 -100 -111 -234q-109 -127 -269.5 -245.5 t-307.5 -184.5z" />
<glyph unicode="3" horiz-adv-x="1183" d="M18 266q86 -145 209 -212.5t299 -67.5q184 0 330 69q145 68 227 190t82 273q0 111 -43 215q-45 106 -119.5 183t-164.5 110l278 188l-8 342l-1051 -2v-354l482 6l-299 -245l104 -269q53 35 97 49.5t98 14.5q74 0 125 -53.5t51 -129.5q0 -82 -55.5 -134t-143.5 -52 q-84 0 -156.5 47t-128.5 137z" />
<glyph unicode="4" horiz-adv-x="1189" d="M18 1546l21 -1149l514 -12l-10 -385l405 12l2 365l221 -6v358l-221 12l2 506l-381 -112l-10 -371l-166 10v797z" />
<glyph unicode="5" horiz-adv-x="1097" d="M0 299q100 -145 234.5 -222t287.5 -77q154 0 283 74q127 72 200.5 197.5t73.5 273.5q0 166 -75 278q-76 109 -198 166.5t-265 57.5q-68 -1 -109 -9l-6 164h575v344h-942l-18 -811l266 -114q18 39 66.5 62.5t109.5 23.5q84 0 139.5 -46.5t55.5 -115.5q0 -72 -56.5 -122 t-134.5 -50q-61 0 -113 31.5t-79 84.5z" />
<glyph unicode="6" horiz-adv-x="1140" d="M18 588q0 -41 2 -53q6 -137 78 -267q74 -127 204 -202.5t290 -75.5q156 0 274 67q121 66 188.5 183.5t67.5 265.5q0 135 -59 250q-61 111 -171 180.5t-251 83.5q84 86 177 154.5t169 101.5l-268 283q-700 -442 -701 -971zM375 516v14q4 76 60.5 119t133.5 43 q84 0 137.5 -53t53.5 -131q0 -76 -53.5 -131t-126.5 -55q-80 0 -141.5 55t-63.5 139z" />
<glyph unicode="7" horiz-adv-x="1155" d="M18 1161l560 17q-131 -180 -278.5 -506t-256.5 -676h481q137 416 238 612q92 182 180 322.5t195 265.5l-11 360h-1108v-395z" />
<glyph unicode="8" horiz-adv-x="1107" d="M18 424q0 -121 76 -217q74 -100 203 -158.5t281 -58.5q147 0 266 59q117 59 181.5 162.5t64.5 239.5q0 121 -75 222t-188 140q119 55 171.5 134t52.5 192q0 117 -66 217q-68 98 -182.5 155.5t-249.5 57.5q-141 0 -258 -58q-119 -57 -188.5 -155.5t-69.5 -214.5 q0 -102 60.5 -181t193.5 -147q-131 -72 -202 -173t-71 -216zM401 1130q0 53 42 92.5t100 39.5q57 0 99 -40t42 -94q0 -45 -30.5 -92t-80.5 -80q-80 27 -126 74t-46 100zM410 449q0 55 28.5 104t114.5 82q80 -23 128 -71t48 -109q0 -63 -49 -110.5t-113 -47.5q-61 0 -108 45 t-49 107z" />
<glyph unicode="9" horiz-adv-x="1130" d="M18 1059q0 -117 66 -225q68 -111 187.5 -177.5t265.5 -68.5q-76 -94 -183.5 -182.5t-199.5 -133.5l268 -282q338 209 514 476t176 550q0 47 -2 61v2q0 137 -78 252q-78 111 -201.5 174.5t-257.5 63.5q-143 0 -270 -72q-129 -74 -207 -191.5t-78 -246.5zM387 1067 q0 72 48 116t118 44q74 0 126 -45t52 -121q0 -74 -47 -124t-125 -50q-80 0 -126 53t-46 127z" />
<glyph unicode=":" horiz-adv-x="483" d="M14 223q0 -68 33 -119q31 -53 82 -84.5t109 -31.5q63 0 114 37q51 35 82 92t31 116q0 96 -65.5 163t-153.5 67q-96 0 -164 -70.5t-68 -169.5zM14 1092q0 -68 33 -119q31 -53 82 -85t109 -32q63 0 114 37q51 35 82 92t31 117q0 96 -65.5 162.5t-153.5 66.5 q-96 0 -164 -70.5t-68 -168.5z" />
<glyph unicode=";" horiz-adv-x="518" d="M18 -100l242 -41l240 442l-314 154zM49 1092q0 -66 31 -117q31 -55 82 -87t110 -32q62 0 115 37q51 35 82 91t31 118q0 96 -64.5 162.5t-156.5 66.5q-96 0 -163 -70.5t-67 -168.5z" />
<glyph unicode="&#x3c;" horiz-adv-x="995" d="M18 389l830 -393l121 346l-525 248l533 194l-193 346l-764 -337z" />
<glyph unicode="=" horiz-adv-x="788" d="M18 254h746v326h-746v-326zM18 645h752v307l-752 17v-324z" />
<glyph unicode="&#x3e;" horiz-adv-x="995" d="M18 784l533 -194l-524 -248l120 -346l830 393l-2 404l-764 337z" />
<glyph unicode="?" horiz-adv-x="1054" d="M39 1153l270 -111q4 74 56.5 124.5t123.5 50.5q68 0 113 -44.5t45 -113.5q0 -74 -58.5 -119t-156.5 -45q-63 0 -145 25v-408l323 -27l-4 119q105 1 207 60q100 61 161.5 158.5t61.5 199.5q0 158 -61 283q-63 125 -181 194.5t-270 69.5q-119 0 -227 -56 q-109 -55 -178.5 -150t-79.5 -210zM221 231q0 -98 66.5 -168.5t163.5 -70.5q96 0 158.5 71.5t62.5 176.5q0 102 -61.5 164.5t-151.5 62.5q-61 0 -115 -31q-55 -31 -89 -85t-34 -120z" />
<glyph unicode="@" horiz-adv-x="1683" d="M18 774q0 -223 101 -399q100 -180 278 -282.5t398 -102.5q174 0 333 78l-198 186q-27 -8 -69 -13t-73 -5q-127 0 -241 79q-113 80 -181.5 213.5t-68.5 278.5q0 135 68 254q70 121 201.5 192.5t314.5 71.5q250 0 394 -128t144 -386q0 -127 -26 -209q-27 -82 -69 -127 t-85 -45q-27 0 -48.5 19.5t-25.5 46.5l-26 641h-213v-54q-27 29 -71 45.5t-97 16.5q-90 0 -166 -45q-76 -47 -119 -126t-43 -175q0 -94 43 -174q41 -80 112.5 -127t155.5 -47q51 0 100.5 16t86.5 45q8 -147 89 -228t195 -81q117 0 224 90q104 92 166.5 241.5t62.5 317.5 q0 221 -106 383t-290 248t-407 86q-227 -1 -422 -105q-195 -106 -308.5 -288.5t-113.5 -401.5zM655 801q0 53 42 93t100 40q51 0 84.5 -35t33.5 -88q0 -57 -38.5 -102t-90.5 -45q-51 0 -91 42t-40 95z" />
<glyph unicode="A" d="M18 186l410 -168l131 326l520 -2l92 -342l410 98l-481 1454l-410 4zM723 754l147 366l99 -368z" />
<glyph unicode="B" horiz-adv-x="1198" d="M18 -2l9 1491q68 41 213 60.5t303 19.5q127 0 243.5 -49.5t190.5 -133.5q72 -84 72 -186q0 -127 -65.5 -226.5t-168.5 -119.5q10 2 43 2q90 0 163 -50t116 -142t43 -205q0 -233 -209 -347t-641 -114h-312zM416 348q43 -16 84 -16q100 0 170.5 53t70.5 131q0 61 -52 101 t-132 40q-76 0 -141 -34v-275zM416 1004q23 -8 59 -9q76 0 135.5 42t59.5 98q0 55 -44 90t-114 35q-47 0 -96 -23v-233z" />
<glyph unicode="C" horiz-adv-x="1505" d="M18 782q0 -211 103 -393q102 -186 275 -294.5t374 -108.5h4q157 0 309 71q154 72 255.5 193t125.5 262l-334 115q-16 -51 -61 -103q-51 -57 -126 -93t-157 -36q-94 0 -178 47t-132 136.5t-48 207.5q0 174 101.5 272.5t261.5 98.5q119 0 213 -65.5t126 -157.5l357 108 q-43 170 -148 289q-102 117 -243.5 176.5t-298.5 59.5q-211 0 -389 -105q-180 -106 -285 -286.5t-105 -393.5z" />
<glyph unicode="D" horiz-adv-x="1376" d="M18 6q166 -20 357 -20q461 0 722 184t261 543q0 242 -137 436q-137 195 -361.5 307.5t-470.5 112.5q-94 0 -177 -18.5t-177 -59.5zM426 418v694q31 8 86 8q94 0 193 -41q96 -45 152 -123.5t56 -179.5q0 -358 -464 -358h-23z" />
<glyph unicode="E" horiz-adv-x="1171" d="M18 1556l54 -1556l1081 25v409l-674 -26l-10 194l571 12l-20 410l-576 -12l-8 162l692 8l-28 409z" />
<glyph unicode="F" horiz-adv-x="1064" d="M18 -2h410l-16 543l506 6l-33 409l-486 -6l-6 180l654 17v409l-1029 -18v-1540z" />
<glyph unicode="G" horiz-adv-x="1503" d="M20 774q0 -49 5 -86q23 -197 135 -352q113 -160 284.5 -251t360.5 -91q49 0 86 4q170 18 307 119q139 98 220 246.5t81 306.5q0 84 -24 164l-664 194l-117 -356l357 -103q-18 -53 -100.5 -91t-159.5 -38q-82 0 -154 43t-119 117t-57 162q-2 8 -2 37q0 86 39 162 q39 78 105.5 129t144.5 61q45 4 53 4q86 0 168 -30.5t129 -84.5l245 316q-86 92 -238.5 146t-313.5 54q-53 0 -91 -4q-190 -20 -348 -135q-156 -113 -244 -283.5t-88 -359.5z" />
<glyph unicode="H" horiz-adv-x="1318" d="M18 2h410v610l459 -49l4 -575l409 -2l-10 1570l-409 -8l4 -575l-457 47v534h-410v-1552z" />
<glyph unicode="I" horiz-adv-x="446" d="M18 0h398l12 1556h-397z" />
<glyph unicode="J" horiz-adv-x="1198" d="M18 362q41 -106 136 -190q90 -84 208.5 -131t237.5 -47q154 0 281 78q125 78 196.5 208t71.5 283q0 76 -16 146l-111 475l158 -4l-31 342l-963 47l-55 -359l455 -14l110 -496q8 -41 9 -63q0 -80 -44.5 -130t-113.5 -50q-61 0 -114.5 37.5t-70.5 97.5z" />
<glyph unicode="K" horiz-adv-x="1390" d="M20 6h408v428l113 115l491 -612l340 301l-520 622l424 428l-326 299l-522 -516v479h-408v-1544z" />
<glyph unicode="L" horiz-adv-x="999" d="M18 -4h963v410h-553v1150h-410v-1560z" />
<glyph unicode="M" horiz-adv-x="1763" d="M39 16l410 2l10 838l227 -860h410l196 919l43 -919l410 14l-72 1542h-641l-155 -835l-230 823l-313 10l-295 19v-1553z" />
<glyph unicode="N" horiz-adv-x="1495" d="M18 1587l15 -1599l397 14l-8 868l645 -870h397l13 1581l-398 -14l-6 -858l-657 862z" />
<glyph unicode="O" horiz-adv-x="1640" d="M18 782q0 -209 113 -389q111 -186 298 -296.5t396 -110.5h4q208 0 390 110q186 111 294.5 294t108.5 392q0 207 -109 389q-111 180 -296 288t-392 108q-211 0 -397 -107q-188 -109 -299 -291t-111 -387zM428 784q0 106 49 193q49 84 136 132t194 48q111 0 205 -47 q94 -49 147 -136t53 -192q0 -106 -53 -196q-55 -88 -146 -139.5t-200 -51.5q-113 0 -197 51q-88 49 -138 138.5t-50 199.5z" />
<glyph unicode="P" horiz-adv-x="1232" d="M16 1423l41 -1423h410l-10 412q76 -10 123 -11q172 0 321 78q147 78 230 211t83 291q0 168 -94 299q-94 133 -252.5 209t-339.5 76q-231 -1 -512 -142zM440 1184q58 30 119 30q100 0 173 -67.5t73 -165.5q0 -57 -37 -107q-37 -49 -97.5 -77.5t-125.5 -28.5q-49 0 -96 18z " />
<glyph unicode="Q" horiz-adv-x="1640" d="M18 782q0 -209 113 -389q111 -186 298 -296.5t396 -110.5q113 0 219 32l175 -241l364 231l-178 238q104 111 160.5 250t56.5 286q0 207 -109 389q-111 180 -296 288t-392 108q-211 0 -397 -107q-188 -109 -299 -291t-111 -387zM428 784q0 106 49 193q49 84 136 132 t194 48q111 0 205 -47q94 -49 147 -136t53 -192q0 -106 -53 -196q-55 -88 -146 -139.5t-200 -51.5q-113 0 -197 51q-88 49 -138 138.5t-50 199.5z" />
<glyph unicode="R" horiz-adv-x="1208" d="M18 1481l17 -1465h409l-4 392l56 -5q47 -139 151 -247q104 -111 246.5 -173.5t290.5 -62.5v410q-90 0 -160 47t-106 131q129 80 200.5 207t71.5 289q0 170 -80 294q-82 129 -238.5 200t-375.5 71q-137 0 -272.5 -23.5t-205.5 -64.5zM432 1163q21 13 65 23t78 10 q55 0 103 -29q47 -29 74.5 -76t27.5 -96q0 -61 -39 -106q-37 -47 -99 -74t-126 -27q-49 0 -80 15z" />
<glyph unicode="S" horiz-adv-x="1277" d="M18 250q106 -121 272.5 -193.5t334.5 -72.5h5q169 0 310 73q147 74 233.5 203t86.5 281q0 143 -74 243q-74 98 -202 150.5t-294 52.5q-94 0 -155 21q-66 18 -66 57q0 37 55.5 63.5t130.5 26.5q172 0 365 -141l231 313q-117 117 -270.5 179.5t-314.5 62.5q-158 0 -295 -66 q-137 -68 -216 -182.5t-79 -255.5q0 -137 78 -250t204.5 -176.5t278.5 -63.5q176 0 176 -77q0 -43 -52 -73t-132 -30q-90 0 -179.5 42t-154.5 116z" />
<glyph unicode="T" horiz-adv-x="1355" d="M18 1556l29 -409l426 10l4 -1171l406 18l-4 1163l458 11l-32 409z" />
<glyph unicode="U" horiz-adv-x="1351" d="M18 918q0 -287 80 -500t229.5 -325.5t354.5 -112.5h4q197 0 342 110q147 111 226 315.5t79 477.5q0 399 -108 706l-434 -123q39 -150 66.5 -322.5t27.5 -260.5q0 -494 -203 -494q-207 0 -207 504l6 59q14 184 27.5 295t32.5 203l-441 106q-82 -297 -82 -638z" />
<glyph unicode="V" horiz-adv-x="1499" d="M18 1384l648 -1450l413 74l402 1438l-402 110l-245 -899l-406 916z" />
<glyph unicode="W" horiz-adv-x="2347" d="M20 1421l435 -1413h514l166 723l163 -764h496l535 1407l-478 230l-317 -990l-195 914h-376l-240 -844l-246 881z" />
<glyph unicode="X" horiz-adv-x="1478" d="M18 215l379 -260l344 453l326 -453l393 223l-444 592l422 555l-377 248l-328 -428l-311 414l-348 -228l389 -538z" />
<glyph unicode="Y" horiz-adv-x="1519" d="M18 1386l533 -694l2 -694h410l-2 659l540 807l-409 101l-318 -475l-325 475z" />
<glyph unicode="Z" horiz-adv-x="1208" d="M18 -12h1149v401h-569l592 782v394l-1116 -2v-400l530 2l-586 -782v-395z" />
<glyph unicode="[" horiz-adv-x="757" d="M18 -385l721 -2l-24 373l-314 6l23 1659h297l-23 340h-657z" />
<glyph unicode="\" horiz-adv-x="1060" d="M18 1526l660 -1577l364 117l-641 1531z" />
<glyph unicode="]" horiz-adv-x="757" d="M18 -387l721 2l-22 2376h-658l-22 -340h297l22 -1659l-313 -6z" />
<glyph unicode="^" horiz-adv-x="745" d="M18 1270h263l94 233l67 -237l285 2l-192 383h-304z" />
<glyph unicode="_" horiz-adv-x="1179" d="M18 -285h1119l24 281h-1124z" />
<glyph unicode="a" horiz-adv-x="1218" d="M18 547q0 -154 68 -279q68 -129 182.5 -202.5t249.5 -73.5q86 0 168 28.5t137 75.5l2 -96h375l-47 1087h-340v-88q-43 47 -113.5 74t-150.5 27q-147 0 -268 -72q-123 -74 -193 -201t-70 -280zM381 547q0 88 67.5 151.5t157.5 63.5q82 0 136.5 -56.5t54.5 -140.5 q0 -61 -29 -114q-29 -55 -78 -88t-102 -33h-3q-50 0 -96 30q-49 31 -78.5 82.5t-29.5 104.5z" />
<glyph unicode="b" horiz-adv-x="1243" d="M18 -4h400v115q63 -55 160.5 -90t193.5 -35q119 0 225 77q104 78 166 208t62 282q0 141 -64 268q-63 131 -167.5 211t-215.5 82h-23q-199 0 -331 -98l4 635l-410 -33v-1622zM422 557q0 86 66.5 150.5t154.5 64.5q84 0 148.5 -64.5t64.5 -152.5q0 -53 -29 -106 q-31 -51 -81 -83t-103 -32q-55 0 -106 33q-51 31 -83 83t-32 107z" />
<glyph unicode="c" horiz-adv-x="1128" d="M18 559q0 -152 76 -283q76 -133 206 -211.5t278 -78.5q128 0 251 61q125 61 201 163.5t76 213.5l-340 33q-20 -47 -68.5 -78t-101.5 -31t-102 31q-51 31 -82 80t-31 100q0 78 64.5 138.5t146.5 60.5q59 0 107.5 -36t66.5 -95l344 30q0 121 -80 226q-80 104 -208 165.5 t-261 61.5q-150 0 -272 -74q-125 -74 -198 -199.5t-73 -277.5z" />
<glyph unicode="d" horiz-adv-x="1243" d="M18 553q0 -150 62 -283q61 -131 165.5 -207.5t225.5 -76.5q96 0 193.5 34.5t160.5 90.5v-115h400v1622l-410 33l4 -635q-129 98 -330 98q-137 0 -239 -82q-104 -82 -168 -211t-64 -268zM387 555q0 88 64.5 152.5t148.5 64.5q88 0 154.5 -64.5t66.5 -150.5q0 -53 -30 -106 q-33 -53 -84.5 -85t-106.5 -32t-102 33q-51 31 -81 82t-30 106z" />
<glyph unicode="e" horiz-adv-x="1126" d="M18 586q0 -158 72 -291t190.5 -215t260.5 -92q10 -2 41 -2q113 0 219 43t181 119.5t101 173.5l-292 84q-67 -98 -206 -98q-15 0 -32 1q-57 4 -102 47t-70 113l725 8q2 14 2 66q0 260 -142.5 408.5t-396.5 148.5q-145 -1 -268 -60q-125 -61 -198.5 -167.5t-82.5 -239.5 q-2 -10 -2 -47zM383 719q53 127 184 127q62 0 108 -33t54 -96z" />
<glyph unicode="f" horiz-adv-x="1079" d="M18 1104l39 -369l211 -2l8 -729h420l-30 723l278 -4l23 369l-316 4q6 90 34 140t79 67q35 10 72 10q88 0 145 -33l66 -39l14 291q-61 59 -153.5 90t-198.5 31q-213 0 -334 -105q-113 -98 -113 -282v-25l2 -141z" />
<glyph unicode="g" horiz-adv-x="1236" d="M18 553q0 -135 68 -244q68 -111 184.5 -173t253.5 -62q82 0 178.5 30.5t165.5 77.5v-28v-9q0 -127 -57 -211q-59 -88 -195 -88q-84 0 -142 42t-60 112l-379 125q0 -184 80 -326q78 -143 218 -222t322 -79q217 0 338 107q113 94 162 220t51 245l13 1020h-334l-2 -68 q-66 41 -159 64.5t-194 23.5q-133 0 -251 -80q-119 -80 -190 -209t-71 -268zM391 590q0 90 52.5 147.5t134.5 57.5q84 0 141 -57.5t57 -143.5t-59.5 -148.5t-143.5 -62.5q-77 0 -129.5 58.5t-52.5 148.5z" />
<glyph unicode="h" horiz-adv-x="1212" d="M18 1651l29 -1643l385 -6l-8 604q55 152 201 152q88 0 139 -49.5t51 -135.5v-573h379l-4 612q-2 233 -113.5 370.5t-300.5 137.5q-100 0 -198.5 -43t-159.5 -112l-10 686h-390z" />
<glyph unicode="i" horiz-adv-x="509" d="M18 1407q0 -63 37 -119q35 -55 91.5 -87t115.5 -32q98 0 164 71t66 179q0 98 -60.5 157.5t-159.5 59.5q-104 0 -179 -65.5t-75 -163.5zM39 1092l33 -1086h395v1086h-428z" />
<glyph unicode="j" horiz-adv-x="837" d="M18 -424q109 -78 291 -78q190 0 303 96q106 94 152 272q43 171 43 438v24l-4 782l-408 -12l-4 -699v-59q-4 -164 -8 -225q-18 -186 -131 -211l-35 -4q-43 0 -72 26zM375 1427q0 -98 64.5 -167.5t156.5 -69.5q96 0 159.5 71.5t63.5 176.5q0 98 -57 154.5t-156 56.5 q-104 0 -167.5 -61.5t-63.5 -160.5z" />
<glyph unicode="k" horiz-adv-x="1175" d="M18 0l383 4l2 428l310 -452l444 20l-409 594l315 491l-414 27l-246 -377l3 936l-388 -20v-1651z" />
<glyph unicode="l" horiz-adv-x="739" d="M18 444v-7q0 -211 112 -331q114 -122 302 -122q135 0 289 67l-90 363q-27 -19 -70 -19q-63 0 -106 42t-43 122l-2 1008l-387 -115z" />
<glyph unicode="m" horiz-adv-x="1695" d="M18 -2h385l-16 518l2 -4l-2 43q0 102 35 157.5t100 55.5q63 0 98 -52t35 -147l4 -567l385 4v508l3 -6l-3 39q0 96 32 158.5t83 62.5q68 0 93.5 -43t25.5 -156l2 -569h397l-2 467q-2 336 -89 486.5t-277 150.5q-135 0 -219 -24.5t-136 -82.5q-96 96 -284 97 q-90 0 -167 -22.5t-130 -63.5l-2 82l-353 -13v-1079z" />
<glyph unicode="n" horiz-adv-x="1114" d="M18 0h371l-2 596q10 84 54 123t112 39q80 0 119 -65.5t39 -211.5l-2 -481h374l13 723v16q0 171 -83 269q-87 102 -241 102q-98 0 -202.5 -33t-184.5 -84v105l-367 -6v-1092z" />
<glyph unicode="o" horiz-adv-x="1191" d="M18 571q0 -152 78 -284q78 -137 211 -216t291 -79q162 0 293 76q133 76 208 208t75 293q0 162 -72 287q-72 123 -203 189.5t-307 66.5q-137 0 -266 -63q-137 -66 -222.5 -191t-85.5 -287zM385 553q0 90 60.5 151.5t152.5 61.5q100 0 155.5 -61.5t55.5 -157.5 q0 -94 -55.5 -150.5t-143.5 -56.5q-98 0 -161.5 60.5t-63.5 152.5z" />
<glyph unicode="p" horiz-adv-x="1146" d="M18 -489h406l-18 563q102 -55 251 -56q139 0 248 78q106 76 164.5 208t58.5 290q0 147 -51 264t-145 184.5t-221 71.5h-8q-77 0 -169 -35q-96 -37 -167 -96l-15 109l-334 2v-1583zM393 569q0 84 58.5 139.5t146.5 55.5q90 0 145.5 -58.5t55.5 -154.5q0 -92 -50.5 -145.5 t-132.5 -53.5q-90 0 -156.5 64.5t-66.5 152.5z" />
<glyph unicode="q" horiz-adv-x="1216" d="M18 551q0 -145 64 -270q63 -129 165.5 -206t217.5 -77q106 0 197.5 27.5t158.5 76.5l-18 -591h395v1589l-313 -15l-21 -108q-63 63 -143 97t-164 34q-150 0 -272 -74q-125 -76 -196 -202.5t-71 -280.5zM401 535q0 45 27 96q25 53 73 87t103 34q90 0 149.5 -56.5 t59.5 -142.5q0 -90 -66.5 -156.5t-160.5 -66.5q-84 0 -134.5 56t-50.5 149z" />
<glyph unicode="r" horiz-adv-x="948" d="M18 0h381v393q8 178 62.5 257t165.5 79q104 0 161 -82l142 318q-53 66 -123 101.5t-141 35.5q-70 0 -140.5 -27.5t-126.5 -77.5v95h-381v-1092z" />
<glyph unicode="s" horiz-adv-x="995" d="M18 164q72 -84 195 -134t258 -50q137 0 254 55t184.5 149.5t67.5 202.5q0 145 -117 227t-325 82q-143 0 -144 52q0 29 40 47t101 18q66 0 136.5 -23.5t165.5 -74.5l143 227q-98 84 -218 131t-239 47q-117 0 -225 -49q-106 -51 -170 -134t-64 -175t56 -168 q55 -78 146 -124t194 -46q29 0 37 2q66 0 96 -10q29 -10 28 -35q0 -31 -44 -52.5t-107 -21.5q-66 0 -129.5 23.5t-112.5 66.5z" />
<glyph unicode="t" horiz-adv-x="946" d="M18 1092l15 -324h162l-29 -236q-10 -106 -10 -155q0 -209 91 -305.5t279 -96.5q139 0 236.5 48.5t165.5 148.5l-103 287q-47 -58 -86 -80.5t-90 -22.5t-81.5 48.5t-30.5 127.5l4 54l20 184h307l-39 334l-229 -4l29 254l-365 -19l-28 -239z" />
<glyph unicode="u" horiz-adv-x="1148" d="M18 535v-19q0 -256 102 -392q106 -140 318 -140q92 0 172 33.5t131 93.5v-101h389v1084h-385l-2 -484v2q0 -104 -48 -169.5t-132 -65.5q-78 0 -120 46t-42 132l2 543h-378z" />
<glyph unicode="v" horiz-adv-x="1062" d="M18 1094l234 -1094h498l294 1092h-395l-127 -623l-110 625h-394z" />
<glyph unicode="w" horiz-adv-x="1720" d="M18 1090l218 -1090h444l194 563l166 -563h383l279 1098h-414l-78 -461l-153 457l-338 -2l-182 -449l-101 459z" />
<glyph unicode="x" horiz-adv-x="1202" d="M18 4l457 -4l137 209l144 -209l424 29l-355 506l359 542l-410 15l-168 -242l-174 248l-395 -41l352 -518z" />
<glyph unicode="y" horiz-adv-x="1259" d="M18 -412q82 -41 175.5 -65.5t175.5 -24.5q195 0 341 142.5t222 404.5l287 1071l-410 -18l-158 -611l-209 607l-401 -11l457 -1116q-49 -78 -142 -78q-53 0 -131 26t-114 56z" />
<glyph unicode="z" horiz-adv-x="995" d="M18 291l11 -291h948l-25 338l-370 -19l376 463l-36 316h-873v-316h375z" />
<glyph unicode="{" horiz-adv-x="786" d="M8 655q82 0 123 -53q35 -49 45 -112.5t12 -190.5q2 -211 27 -344q25 -129 105.5 -196.5t238.5 -67.5q53 0 135 16q51 14 84 17l-43 307q-74 -29 -119 -29q-66 0 -93 55.5t-27 180.5l2 96q2 23 2 94q0 133 -36 243.5t-114 176.5q63 61 96 151.5t33 192.5l-6 303 q0 170 139 170q47 0 119 -23l43 320q-61 12 -153 12q-229 0 -334 -97t-105 -321q0 -84 2 -110l2 -119q0 -147 -42 -225t-136 -86v-361z" />
<glyph unicode="}" horiz-adv-x="786" d="M8 -276q33 -2 84 -17q82 -16 135 -16q162 -1 244 71q74 68 98.5 181.5t28.5 355.5q4 129 10 180q8 78 50 127t120 49v361q-94 8 -136 86t-42 225l2 119q2 27 2 110q0 223 -104.5 320.5t-333.5 97.5q-92 0 -154 -12l43 -320q72 23 119 23q139 0 139 -170l-6 -303 q0 -102 33 -192.5t96 -151.5q-78 -66 -113.5 -176.5t-35.5 -243.5q0 -72 2 -94l2 -96q0 -125 -27.5 -180.5t-93.5 -55.5q-45 0 -119 29z" />
<glyph unicode="~" horiz-adv-x="833" d="M18 1362l228 -23q20 82 82 82q41 0 114 -41q53 -27 88 -39t64 -12q78 0 137.5 81t83.5 220l-205 23q-8 -76 -61 -76q-23 0 -60 16l-43 17q-61 27 -96 38t-69 11q-104 0 -177 -75t-86 -222z" />
<glyph unicode="&#xa1;" horiz-adv-x="514" d="M18 852q0 -100 71 -164.5t181 -64.5q102 0 164 58t62 159q0 109 -69 183.5t-167 74.5q-66 0 -119 -33q-57 -35 -90 -91t-33 -122zM31 -467h448l-8 1020l-403 16z" />
<glyph unicode="&#xa2;" horiz-adv-x="1138" d="M18 559q0 -178 102.5 -327.5t268.5 -211.5l10 -157l432 -33l-18 209q131 61 212 165.5t81 219.5l-340 33q-20 -47 -68.5 -78t-101.5 -31t-102 31q-51 31 -82 80t-31 100q0 78 64.5 138.5t146.5 60.5q59 0 107.5 -36t66.5 -95l344 30q0 133 -99.5 248t-252.5 170v191 l-422 -19l12 -180q-150 -63 -240 -200.5t-90 -307.5z" />
<glyph unicode="&#xa3;" horiz-adv-x="1308" d="M18 0h1272v356l-469 -10q-90 84 -139 236l317 -7v359l-346 -8q18 117 74.5 183.5t151.5 66.5q115 0 208 -105l203 281q-92 102 -218 159.5t-257 57.5q-160 0 -299 -90q-135 -92 -228 -242t-122 -322l-109 -2l-10 -319l127 -2q31 -150 109 -258l-236 -4z" />
<glyph unicode="&#xa4;" horiz-adv-x="1294" d="M18 918l172 -134q-53 -111 -53 -227q0 -143 70 -264l-166 -123l170 -205l168 137q137 -96 307 -96q145 0 270 68l109 -121l197 197l-105 118q76 131 76 287q0 153 -66 268l109 90l-154 201l-143 -108q-127 66 -297 65q-76 0 -154.5 -21.5t-146.5 -64.5l-166 129zM485 539 q0 86 57.5 144t143.5 58q96 0 148.5 -58t52.5 -148t-52.5 -143.5t-136.5 -53.5q-94 0 -153.5 56.5t-59.5 144.5z" />
<glyph unicode="&#xa5;" horiz-adv-x="1519" d="M18 1386l521 -679l-269 8l-30 -246l311 -8v-80h-301l33 -229h270v-154h410v154h307l-47 229h-262v70l296 -7l-59 244l-213 6l516 770l-409 101l-318 -475l-325 475z" />
<glyph unicode="&#xa6;" horiz-adv-x="364" d="M18 752h328v884l-328 21v-905zM23 457v-934l311 -25v959h-311z" />
<glyph unicode="&#xa7;" horiz-adv-x="946" d="M18 184q80 -88 202 -141t245 -53q125 0 231 55q106 53 169 147.5t63 204.5q0 117 -70 199q70 94 70 217q0 147 -110.5 240.5t-305.5 105.5q-10 2 -45 2q-74 6 -94 13q-23 4 -23 22q0 27 39 39q37 12 100 12q133 0 265 -106l170 248q-84 84 -197 131t-231 47 q-123 0 -222 -49q-100 -49 -157.5 -134.5t-57.5 -189.5q0 -113 72 -207q-72 -90 -72 -207q0 -102 52 -184q51 -86 145 -136t217 -57q12 -2 47 -2q37 -2 68 -8q14 -2 14 -24q0 -29 -31 -39q-31 -8 -102 -8q-68 0 -132.5 30.5t-113.5 83.5zM352 786q0 31 39 45q39 16 103 17 q61 0 100 -17q35 -16 35 -45q0 -31 -39 -50t-101 -19q-59 0 -98 19.5t-39 49.5z" />
<glyph unicode="&#xa9;" d="M18 786q0 -225 103 -407q102 -184 281.5 -287.5t404.5 -103.5q227 0 401 104q178 102 275.5 285.5t97.5 417.5q0 223 -102 399q-104 172 -279.5 267t-386.5 95q-229 0 -412 -104q-180 -104 -281.5 -282.5t-101.5 -383.5zM274 786q0 135 72 256q74 121 198 192t269 71 q141 0 260 -70q117 -70 184.5 -186.5t67.5 -253.5q0 -156 -70 -281q-70 -127 -190.5 -198.5t-267.5 -71.5q-148 -1 -267 69q-119 68 -187.5 193t-68.5 280zM446 774q0 -100 50 -190q49 -90 131 -142.5t178 -52.5q77 0 153 35q74 35 123 93t60 124l-187 70q-16 -37 -54 -60.5 t-83 -23.5q-61 0 -107 45t-46 104t46 104.5t105 45.5q47 0 89 -29t57 -70l192 68q-37 119 -124 185.5t-208 66.5q-102 0 -188 -49t-136.5 -135t-50.5 -189z" />
<glyph unicode="&#xab;" horiz-adv-x="729" d="M18 567l21 -161l262 -304l80 201l-141 189l141 196l-100 201zM348 561l19 -160l262 -301l82 201l-142 195l142 186l-103 203z" />
<glyph unicode="&#xad;" horiz-adv-x="804" d="M18 797l17 -406l751 6l-6 404z" />
<glyph unicode="&#xae;" horiz-adv-x="630" d="M18 1280q0 -78 39 -143q37 -70 103.5 -112t144.5 -42q82 0 154 43t112.5 112.5t40.5 147.5t-41 144t-109.5 102.5t-150.5 36.5q-77 0 -143 -39q-68 -39 -109 -105.5t-41 -144.5zM125 1280q0 86 50 134t136 48q78 0 136.5 -51t58.5 -125q0 -80 -60.5 -138t-140.5 -58 q-78 0 -129 53t-51 137zM209 1161h74v66h6q12 -37 46 -64.5t71 -27.5v73q-29 0 -46 35q47 29 48 80q0 49 -32 75.5t-91 26.5q-20 0 -42 -5t-34 -13v-246zM283 1303v57q4 2 14 2q14 0 23.5 -8t9.5 -23q0 -12 -14.5 -20t-32.5 -8z" />
<glyph unicode="&#xb6;" horiz-adv-x="1077" d="M18 1198q0 -111 45 -199t127 -137t191 -49l37 2v-829h295v1327q80 -12 96 -17v-1310h235l15 1544q-197 37 -293 50t-193 13q-157 0 -280 -45q-129 -47 -202 -137t-73 -213z" />
<glyph unicode="&#xbb;" horiz-adv-x="722" d="M18 326l82 -201l262 301l19 160l-260 323l-103 -202l175 -189zM342 324l80 -201l262 303l21 162l-263 321l-100 -200l166 -189z" />
<glyph unicode="&#xbf;" horiz-adv-x="1034" d="M-2 76q0 -158 63 -283q61 -125 178 -194.5t271 -69.5q123 0 229 55q109 55 177.5 150.5t78.5 210.5l-270 110q-4 -74 -56.5 -124t-123.5 -50q-68 0 -113 44t-45 114q0 74 58.5 119t156.5 45q63 0 146 -25v408l-324 26l4 -118q-105 -1 -205 -60q-100 -61 -162.5 -158.5 t-62.5 -199.5zM362 858q0 -102 61.5 -164.5t151.5 -62.5q61 0 117 31q55 31 88 85t33 119q0 98 -66.5 169t-162.5 71q-97 0 -159.5 -71.5t-62.5 -176.5z" />
<glyph unicode="&#xc0;" d="M18 186l410 -168l131 326l520 -2l92 -342l410 98l-481 1454l-410 4zM569 1839l217 -197l287 29l-184 262zM723 754l147 366l99 -368z" />
<glyph unicode="&#xc1;" d="M18 186l410 -168l131 326l520 -2l92 -342l410 98l-481 1454l-410 4zM713 1679l286 -28l218 196l-320 95zM723 754l147 366l99 -368z" />
<glyph unicode="&#xc2;" d="M18 186l410 -168l131 326l520 -2l92 -342l410 98l-481 1454l-410 4zM551 1628h262l76 105l76 -107l256 2l-183 203h-286zM723 754l147 366l99 -368z" />
<glyph unicode="&#xc3;" d="M18 186l410 -168l131 326l520 -2l92 -342l410 98l-481 1454l-410 4zM469 1653l227 -23q20 82 82 82q41 0 115 -41q53 -27 88 -39t63 -12q78 0 137.5 81t84.5 220l-205 23q-8 -76 -62 -76q-23 0 -59 16l-43 17q-61 27 -96 38t-70 11q-104 0 -177 -75t-85 -222zM723 754 l147 366l99 -368z" />
<glyph unicode="&#xc4;" d="M18 186l410 -168l131 326l520 -2l92 -342l410 98l-481 1454l-410 4zM582 1788q0 -57 40 -99t99 -42q53 0 92 41t39 98t-38 94t-93 37q-57 0 -98 -38t-41 -91zM723 754l147 366l99 -368zM938 1788q0 -61 38 -101t101 -40q53 0 92 41t39 98t-37.5 94t-93.5 37 q-57 0 -98 -38t-41 -91z" />
<glyph unicode="&#xc7;" horiz-adv-x="1505" d="M18 782q0 -197 91 -372q92 -176 246.5 -288t338.5 -132l-22 -162q104 12 127 12q39 0 59.5 -14t20.5 -41q0 -25 -14.5 -40t-37.5 -15q-47 4 -51 57l-114 -4q-8 -72 44 -121t128 -49q78 0 125 50t47 130q0 72 -52.5 115t-130.5 37l11 43q154 16 288 88q137 74 228.5 188.5 t113.5 247.5l-334 115q-16 -51 -61 -103q-51 -57 -126 -93t-157 -36q-94 0 -178 47t-132 136.5t-48 207.5q0 174 101.5 272.5t261.5 98.5q119 0 213 -65.5t126 -157.5l357 108q-43 170 -148 289q-102 117 -243.5 176.5t-298.5 59.5q-211 0 -389 -105q-180 -106 -285 -286.5 t-105 -393.5z" />
<glyph unicode="&#xc8;" horiz-adv-x="1171" d="M18 1556l54 -1556l1081 25v409l-674 -26l-10 194l571 12l-20 410l-576 -12l-8 162l692 8l-28 409zM250 1839l217 -197l287 29l-185 262z" />
<glyph unicode="&#xc9;" horiz-adv-x="1171" d="M18 1556l54 -1556l1081 25v409l-674 -26l-10 194l571 12l-20 410l-576 -12l-8 162l692 8l-28 409zM336 1686l287 -29l217 196l-320 95z" />
<glyph unicode="&#xca;" horiz-adv-x="1171" d="M18 1556l54 -1556l1081 25v409l-674 -26l-10 194l571 12l-20 410l-576 -12l-8 162l692 8l-28 409zM246 1642h262l76 105l75 -107l256 2l-182 203h-287z" />
<glyph unicode="&#xcb;" horiz-adv-x="1171" d="M18 1556l54 -1556l1081 25v409l-674 -26l-10 194l571 12l-20 410l-576 -12l-8 162l692 8l-28 409zM264 1763q0 -57 40 -99t99 -42q54 0 93 41t39 98t-38 94t-94 37q-57 0 -98 -37.5t-41 -91.5zM621 1763q0 -61 37.5 -101t101.5 -40q53 0 92 41t39 98t-38 94t-93 37 q-57 0 -98 -37.5t-41 -91.5z" />
<glyph unicode="&#xcc;" horiz-adv-x="446" d="M18 0h398l12 1556h-397zM20 1724l166 -114l185 28l-133 181z" />
<glyph unicode="&#xcd;" horiz-adv-x="446" d="M18 0h398l12 1556h-397zM100 1647l164 -15l123 111l-197 80z" />
<glyph unicode="&#xce;" horiz-adv-x="446" d="M-2 1628h180l45 113l47 -115l176 4l-118 225h-197zM18 0h398l12 1556h-397z" />
<glyph unicode="&#xcf;" horiz-adv-x="446" d="M14 1698q0 -45 29 -76t72 -31q41 0 67.5 31t26.5 78q0 45 -24.5 71.5t-67.5 26.5q-45 0 -74 -27.5t-29 -72.5zM18 0h398l12 1556h-397zM238 1694q0 -43 27.5 -73t68.5 -30t69.5 31t28.5 78q0 45 -25.5 71.5t-70.5 26.5t-71.5 -28.5t-26.5 -75.5z" />
<glyph unicode="&#xd1;" horiz-adv-x="1495" d="M18 1587l15 -1599l397 14l-8 868l645 -870h397l13 1581l-398 -14l-6 -858l-657 862zM344 1675l227 -22q20 82 82 82q41 0 115 -41q53 -27 88 -39.5t64 -12.5q77 0 136.5 81t84.5 221l-205 22q-8 -76 -62 -76q-23 0 -59 17l-43 16q-61 27 -96 38t-70 11q-104 0 -177 -74.5 t-85 -222.5z" />
<glyph unicode="&#xd2;" horiz-adv-x="1640" d="M18 782q0 -209 113 -389q111 -186 298 -296.5t396 -110.5q210 -1 394 110q186 111 294.5 294t108.5 392q0 207 -109 389q-111 180 -296 288t-392 108q-211 0 -397 -107q-188 -109 -299 -291t-111 -387zM428 784q0 106 49 193q49 84 136 132t194 48q111 0 205 -47 q94 -49 147 -136t53 -192q0 -106 -53 -196q-55 -88 -146 -139.5t-200 -51.5q-113 0 -197 51q-88 49 -138 138.5t-50 199.5zM459 1849l217 -196l287 28l-185 263z" />
<glyph unicode="&#xd3;" horiz-adv-x="1640" d="M18 782q0 -209 113 -389q111 -186 298 -296.5t396 -110.5q210 -1 394 110q186 111 294.5 294t108.5 392q0 207 -109 389q-111 180 -296 288t-392 108q-211 0 -397 -107q-188 -109 -299 -291t-111 -387zM428 784q0 106 49 193q49 84 136 132t194 48q111 0 205 -47 q94 -49 147 -136t53 -192q0 -106 -53 -196q-55 -88 -146 -139.5t-200 -51.5q-113 0 -197 51q-88 49 -138 138.5t-50 199.5zM594 1679l287 -28l217 196l-320 95z" />
<glyph unicode="&#xd4;" horiz-adv-x="1640" d="M18 782q0 -209 113 -389q111 -186 298 -296.5t396 -110.5q210 -1 394 110q186 111 294.5 294t108.5 392q0 207 -109 389q-111 180 -296 288t-392 108q-211 0 -397 -107q-188 -109 -299 -291t-111 -387zM428 784q0 106 49 193q49 84 136 132t194 48q111 0 205 -47 q94 -49 147 -136t53 -192q0 -106 -53 -196q-55 -88 -146 -139.5t-200 -51.5q-113 0 -197 51q-88 49 -138 138.5t-50 199.5zM489 1647h263l75 104l76 -106l256 2l-182 202h-287z" />
<glyph unicode="&#xd5;" horiz-adv-x="1640" d="M18 782q0 -209 113 -389q111 -186 298 -296.5t396 -110.5q210 -1 394 110q186 111 294.5 294t108.5 392q0 207 -109 389q-111 180 -296 288t-392 108q-211 0 -397 -107q-188 -109 -299 -291t-111 -387zM424 1653l227 -23q20 82 82 82q41 0 115 -41q53 -27 88 -39t63 -12 q78 0 137.5 81t84.5 220l-205 23q-8 -76 -62 -76q-23 0 -59 16l-43 17q-61 27 -96 38t-70 11q-104 0 -177 -75t-85 -222zM428 784q0 106 49 193q49 84 136 132t194 48q111 0 205 -47q94 -49 147 -136t53 -192q0 -106 -53 -196q-55 -88 -146 -139.5t-200 -51.5 q-113 0 -197 51q-88 49 -138 138.5t-50 199.5z" />
<glyph unicode="&#xd6;" horiz-adv-x="1640" d="M18 782q0 -209 113 -389q111 -186 298 -296.5t396 -110.5q210 -1 394 110q186 111 294.5 294t108.5 392q0 207 -109 389q-111 180 -296 288t-392 108q-211 0 -397 -107q-188 -109 -299 -291t-111 -387zM428 784q0 106 49 193q49 84 136 132t194 48q111 0 205 -47 q94 -49 147 -136t53 -192q0 -106 -53 -196q-55 -88 -146 -139.5t-200 -51.5q-113 0 -197 51q-88 49 -138 138.5t-50 199.5zM508 1782q0 -57 40 -99.5t99 -42.5q53 0 92 41t39 99q0 57 -38 94t-93 37q-57 0 -98 -38t-41 -91zM864 1782q0 -61 38 -101.5t102 -40.5q53 0 92 41 t39 99q0 57 -38 94t-93 37q-57 0 -98.5 -38t-41.5 -91z" />
<glyph unicode="&#xd9;" horiz-adv-x="1351" d="M18 918q0 -287 80 -500t229.5 -325.5t354.5 -112.5q199 -1 346 110t226 315.5t79 477.5q0 399 -108 706l-434 -123q39 -150 66.5 -322.5t27.5 -260.5q0 -494 -203 -494q-207 0 -207 504l6 59q14 184 27.5 295t32.5 203l-441 106q-82 -297 -82 -638zM344 1733l217 -197 l287 29l-184 262z" />
<glyph unicode="&#xda;" horiz-adv-x="1351" d="M18 918q0 -287 80 -500t229.5 -325.5t354.5 -112.5q199 -1 346 110t226 315.5t79 477.5q0 399 -108 706l-434 -123q39 -150 66.5 -322.5t27.5 -260.5q0 -494 -203 -494q-207 0 -207 504l6 59q14 184 27.5 295t32.5 203l-441 106q-82 -297 -82 -638zM457 1563l286 -29 l218 197l-320 94z" />
<glyph unicode="&#xdb;" horiz-adv-x="1351" d="M18 918q0 -287 80 -500t229.5 -325.5t354.5 -112.5q199 0 346 110q147 111 226 315.5t79 477.5q0 399 -108 706l-434 -123q38 -149 66 -322t28 -261q0 -494 -203 -494q-207 0 -207 504l6 59q14 184 27.5 295t32.5 203l-441 106q-82 -297 -82 -638zM395 1563h219l64 84 l63 -86l215 2l-153 163h-240z" />
<glyph unicode="&#xdc;" horiz-adv-x="1351" d="M18 918q0 -287 80 -500t229.5 -325.5t354.5 -112.5q199 -1 346 110t226 315.5t79 477.5q0 399 -108 706l-434 -123q39 -150 66.5 -322.5t27.5 -260.5q0 -494 -203 -494q-207 0 -207 504l6 59q14 184 27.5 295t32.5 203l-441 106q-82 -297 -82 -638zM362 1716 q0 -57 40 -99t100 -42q53 0 92 41t39 98t-38 94t-93 37q-57 0 -98.5 -38t-41.5 -91zM719 1716q0 -61 38 -101t101 -40q53 0 92 41t39 98t-38 94t-93 37q-57 0 -98 -38t-41 -91z" />
<glyph unicode="&#xdf;" horiz-adv-x="1155" d="M18 -2h357v1198q47 43 133 43q90 0 153.5 -45t63.5 -121q0 -80 -59.5 -130t-155.5 -50l10 -231q129 0 193.5 -48.5t64.5 -130.5q0 -66 -55 -111.5t-141 -45.5q-51 0 -97 14l-14 -315q109 -37 215 -37q139 0 242 65q100 63 154.5 167t54.5 218q0 150 -74 248t-195 123 q74 29 123 113t49 186q0 129 -75 231q-78 106 -217.5 166t-313.5 60q-201 0 -416 -80v-1487z" />
<glyph unicode="&#xe0;" horiz-adv-x="1218" d="M18 547q0 -154 68 -279q68 -129 182.5 -202.5t249.5 -73.5q86 0 168 28.5t137 75.5l2 -96h375l-47 1087h-340v-88q-43 47 -113.5 74t-150.5 27q-147 0 -268 -72q-123 -74 -193 -201t-70 -280zM274 1380l218 -196l286 28l-184 263zM381 547q0 88 67.5 151.5t157.5 63.5 q82 0 136.5 -56.5t54.5 -140.5q0 -61 -29 -114q-29 -55 -78 -88t-102 -33q-52 -1 -99 30q-49 31 -78.5 82.5t-29.5 104.5z" />
<glyph unicode="&#xe1;" horiz-adv-x="1218" d="M18 547q0 -154 68 -279q68 -129 182.5 -202.5t249.5 -73.5q86 0 168 28.5t137 75.5l2 -96h375l-47 1087h-340v-88q-43 47 -113.5 74t-150.5 27q-147 0 -268 -72q-123 -74 -193 -201t-70 -280zM381 547q0 88 67.5 151.5t157.5 63.5q82 0 136.5 -56.5t54.5 -140.5 q0 -61 -29 -114q-29 -55 -78 -88t-102 -33q-52 -1 -99 30q-49 31 -78.5 82.5t-29.5 104.5zM389 1180l287 -29l217 197l-320 94z" />
<glyph unicode="&#xe2;" horiz-adv-x="1218" d="M18 547q0 -154 68 -279q68 -129 182.5 -202.5t249.5 -73.5q86 0 168 28.5t137 75.5l2 -96h375l-47 1087h-340v-88q-43 47 -113.5 74t-150.5 27q-147 0 -268 -72q-123 -74 -193 -201t-70 -280zM330 1171h262l76 105l75 -107l256 2l-182 203h-287zM381 547q0 88 67.5 151.5 t157.5 63.5q82 0 136.5 -56.5t54.5 -140.5q0 -61 -29 -114q-29 -55 -78 -88t-102 -33q-52 -1 -99 30q-49 31 -78.5 82.5t-29.5 104.5z" />
<glyph unicode="&#xe3;" horiz-adv-x="1218" d="M18 547q0 -154 68 -279q68 -129 182.5 -202.5t249.5 -73.5q86 0 168 28.5t137 75.5l2 -96h375l-47 1087h-340v-88q-43 47 -113.5 74t-150.5 27q-147 0 -268 -72q-123 -74 -193 -201t-70 -280zM211 1198l227 -22q20 82 82 81q41 0 115 -40q53 -27 88 -39.5t63 -12.5 q78 0 137.5 81t84.5 220l-205 23q-8 -76 -62 -76q-23 0 -59 17l-43 16q-61 27 -96 38t-70 11q-104 0 -177 -74.5t-85 -222.5zM381 547q0 88 67.5 151.5t157.5 63.5q82 0 136.5 -56.5t54.5 -140.5q0 -61 -29 -114q-29 -55 -78 -88t-102 -33q-52 -1 -99 30q-49 31 -78.5 82.5 t-29.5 104.5z" />
<glyph unicode="&#xe4;" horiz-adv-x="1218" d="M18 547q0 -154 68 -279q68 -129 182.5 -202.5t249.5 -73.5q86 0 168 28.5t137 75.5l2 -96h375l-47 1087h-340v-88q-43 47 -113.5 74t-150.5 27q-147 0 -268 -72q-123 -74 -193 -201t-70 -280zM336 1309q0 -57 40 -99.5t99 -42.5q53 0 92 41t39 99q0 57 -38 94t-93 37 q-57 0 -98 -38t-41 -91zM381 547q0 88 67.5 151.5t157.5 63.5q82 0 136.5 -56.5t54.5 -140.5q0 -61 -29 -114q-29 -55 -78 -88t-102 -33q-52 -1 -99 30q-49 31 -78.5 82.5t-29.5 104.5zM692 1309q0 -61 38 -101.5t101 -40.5q54 0 93 41t39 99q0 57 -38 94t-94 37 q-57 0 -98 -38t-41 -91z" />
<glyph unicode="&#xe7;" horiz-adv-x="1128" d="M18 559q0 -139 64 -260q63 -123 173 -205t239 -102l-23 -154q104 12 127 12q39 0 59.5 -14t20.5 -41q0 -25 -14.5 -40t-36.5 -15q-47 4 -52 57l-114 -4q-8 -72 44 -121t128 -49q78 0 125 50.5t47 129.5q0 72 -52.5 115t-129.5 37l8 33q119 12 231 78q111 66 177.5 161 t66.5 197l-340 33q-20 -47 -68.5 -78t-101.5 -31t-102 31q-51 31 -82 80t-31 100q0 78 64.5 138.5t146.5 60.5q59 0 107.5 -36t66.5 -95l344 30q0 121 -80 226q-80 104 -208 165.5t-261 61.5q-150 0 -272 -74q-125 -74 -198 -199.5t-73 -277.5z" />
<glyph unicode="&#xe8;" horiz-adv-x="1126" d="M18 586q0 -158 72 -291t190.5 -215t260.5 -92q10 -2 41 -2q113 0 219 43t181 119.5t101 173.5l-292 84q-74 -109 -238 -97q-57 4 -102 47t-70 113l725 8q2 14 2 66q0 260 -142.5 408.5t-396.5 148.5q-145 -1 -268 -60q-125 -61 -198.5 -167.5t-82.5 -239.5q-2 -10 -2 -47 zM229 1360l217 -197l287 29l-184 262zM383 719q53 127 184 127q62 0 108 -33t54 -96z" />
<glyph unicode="&#xe9;" horiz-adv-x="1126" d="M18 586q0 -158 72 -291t190.5 -215t260.5 -92q10 -2 41 -2q113 0 219 43t181 119.5t101 173.5l-292 84q-74 -109 -238 -97q-57 4 -102 47t-70 113l725 8q2 14 2 66q0 260 -142.5 408.5t-396.5 148.5q-145 -1 -268 -60q-125 -61 -198.5 -167.5t-82.5 -239.5q-2 -10 -2 -47 zM350 1178l287 -29l217 197l-319 94zM383 719q53 127 184 127q62 0 108 -33t54 -96z" />
<glyph unicode="&#xea;" horiz-adv-x="1126" d="M18 586q0 -158 72 -291t190.5 -215t260.5 -92q10 -2 41 -2q113 0 219 43t181 119.5t101 173.5l-292 84q-74 -109 -238 -97q-57 4 -102 47t-70 113l725 8q2 14 2 66q0 260 -142.5 408.5t-396.5 148.5q-145 -1 -268 -60q-125 -61 -198.5 -167.5t-82.5 -239.5q-2 -10 -2 -47 zM233 1163h263l75 105l76 -107l256 2l-182 203h-287zM383 719q53 127 184 127q62 0 108 -33t54 -96z" />
<glyph unicode="&#xeb;" horiz-adv-x="1126" d="M18 586q0 -158 72 -291t190.5 -215t260.5 -92q10 -2 41 -2q113 0 219 43t181 119.5t101 173.5l-292 84q-74 -109 -238 -97q-57 4 -102 47t-70 113l725 8q2 14 2 66q0 260 -142.5 408.5t-396.5 148.5q-145 -1 -268 -60q-125 -61 -198.5 -167.5t-82.5 -239.5q-2 -10 -2 -47 zM250 1284q0 -57 40 -99t99 -42q53 0 92 41t39 98t-38 94t-93 37q-57 0 -98 -38t-41 -91zM383 719q53 127 184 127q62 0 108 -33t54 -96zM606 1284q0 -61 38 -101t101 -40q54 0 93 41t39 98t-38 94t-94 37q-57 0 -98 -38t-41 -91z" />
<glyph unicode="&#xec;" horiz-adv-x="464" d="M18 1092l33 -1086h395v1086h-428zM53 1253l166 -114l184 28l-133 181z" />
<glyph unicode="&#xed;" horiz-adv-x="464" d="M18 1092l33 -1086h395v1086h-428zM90 1155l164 -14l123 110l-197 80z" />
<glyph unicode="&#xee;" horiz-adv-x="509" d="M18 1092l33 -1086h395v1086h-428zM18 1137h181l45 112l47 -114l176 4l-119 225h-196z" />
<glyph unicode="&#xef;" horiz-adv-x="464" d="M18 1092l33 -1086h395v1086h-428zM25 1233q0 -45 28.5 -76t71.5 -31q41 0 67.5 31t26.5 78q0 45 -24.5 71.5t-67.5 26.5q-45 0 -73.5 -27.5t-28.5 -72.5zM248 1229q0 -43 27.5 -73t68.5 -30t69.5 31t28.5 78q0 45 -25.5 71.5t-70.5 26.5t-71.5 -28.5t-26.5 -75.5z" />
<glyph unicode="&#xf1;" horiz-adv-x="1114" d="M18 0h371l-2 596q10 84 54 123t112 39q80 0 119 -65.5t39 -211.5l-2 -481h374l13 723q4 182 -83 284.5t-241 102.5q-98 0 -202.5 -33t-184.5 -84v105l-367 -6v-1092zM160 1217l227 -23q20 82 82 82q41 0 115 -41q53 -27 88 -39t63 -12q78 0 137.5 81t83.5 220l-204 22 q-8 -76 -62 -75q-23 0 -59 16l-43 16q-61 27 -96 38t-70 11q-104 0 -177 -74.5t-85 -221.5z" />
<glyph unicode="&#xf2;" horiz-adv-x="1191" d="M18 571q0 -152 78 -284q78 -137 211 -216t291 -79q162 0 293 76q133 76 208 208t75 293q0 162 -72 287q-72 123 -203 189.5t-307 66.5q-137 0 -266 -63q-137 -66 -222.5 -191t-85.5 -287zM242 1358l217 -197l286 29l-184 262zM385 553q0 90 60.5 151.5t152.5 61.5 q100 0 155.5 -61.5t55.5 -157.5q0 -94 -55.5 -150.5t-143.5 -56.5q-98 0 -161.5 60.5t-63.5 152.5z" />
<glyph unicode="&#xf3;" horiz-adv-x="1191" d="M18 571q0 -152 78 -284q78 -137 211 -216t291 -79q162 0 293 76q133 76 208 208t75 293q0 162 -72 287q-72 123 -203 189.5t-307 66.5q-137 0 -266 -63q-137 -66 -222.5 -191t-85.5 -287zM385 553q0 90 60.5 151.5t152.5 61.5q100 0 155.5 -61.5t55.5 -157.5 q0 -94 -55.5 -150.5t-143.5 -56.5q-98 0 -161.5 60.5t-63.5 152.5zM397 1184l287 -29l217 197l-319 94z" />
<glyph unicode="&#xf4;" horiz-adv-x="1191" d="M18 571q0 -152 78 -284q78 -137 211 -216t291 -79q162 0 293 76q133 76 208 208t75 293q0 162 -72 287q-72 123 -203 189.5t-307 66.5q-137 0 -266 -63q-137 -66 -222.5 -191t-85.5 -287zM266 1186h262l76 104l76 -106l256 2l-182 203h-287zM385 553q0 90 60.5 151.5 t152.5 61.5q100 0 155.5 -61.5t55.5 -157.5q0 -94 -55.5 -150.5t-143.5 -56.5q-98 0 -161.5 60.5t-63.5 152.5z" />
<glyph unicode="&#xf5;" horiz-adv-x="1191" d="M18 571q0 -152 78 -284q78 -137 211 -216t291 -79q162 0 293 76q133 76 208 208t75 293q0 162 -72 287q-72 123 -203 189.5t-307 66.5q-137 0 -266 -63q-137 -66 -222.5 -191t-85.5 -287zM199 1192l227 -23q20 82 82 82q41 0 115 -41q53 -27 87.5 -39t63.5 -12 q78 0 137.5 81t83.5 220l-204 23q-8 -76 -62 -76q-23 0 -59 16l-43 17q-61 27 -96 38t-70 11q-104 0 -177 -75t-85 -222zM385 553q0 90 60.5 151.5t152.5 61.5q100 0 155.5 -61.5t55.5 -157.5q0 -94 -55.5 -150.5t-143.5 -56.5q-98 0 -161.5 60.5t-63.5 152.5z" />
<glyph unicode="&#xf6;" horiz-adv-x="1191" d="M18 571q0 -152 78 -284q78 -137 211 -216t291 -79q162 0 293 76q133 76 208 208t75 293q0 162 -72 287q-72 123 -203 189.5t-307 66.5q-137 0 -266 -63q-137 -66 -222.5 -191t-85.5 -287zM283 1288q0 -57 39.5 -99t99.5 -42q53 0 92 41t39 98t-38 94t-93 37 q-57 0 -98 -38t-41 -91zM385 553q0 90 60.5 151.5t152.5 61.5q100 0 155.5 -61.5t55.5 -157.5q0 -94 -55.5 -150.5t-143.5 -56.5q-98 0 -161.5 60.5t-63.5 152.5zM639 1288q0 -61 38 -101t101 -40q53 0 92 41t39 98t-37.5 94t-93.5 37q-57 0 -98 -38t-41 -91z" />
<glyph unicode="&#xf9;" horiz-adv-x="1148" d="M18 535q-4 -270 102.5 -410.5t317.5 -140.5q92 0 172 33.5t131 93.5v-101h389v1084h-385l-2 -484v2q0 -104 -48 -169.5t-132 -65.5q-78 0 -120 46t-42 132l2 543h-378zM262 1384l217 -196l287 29l-184 262z" />
<glyph unicode="&#xfa;" horiz-adv-x="1148" d="M18 535q-4 -270 102.5 -410.5t317.5 -140.5q92 0 172 33.5t131 93.5v-101h389v1084h-385l-2 -484v2q0 -104 -48 -169.5t-132 -65.5q-78 0 -120 46t-42 132l2 543h-378zM406 1204l286 -28l217 196l-319 94z" />
<glyph unicode="&#xfb;" horiz-adv-x="1148" d="M18 535q-4 -270 102.5 -410.5t317.5 -140.5q92 0 172 33.5t131 93.5v-101h389v1084h-385l-2 -484v2q0 -104 -48 -169.5t-132 -65.5q-78 0 -120 46t-42 132l2 543h-378zM299 1174h219l64 83l63 -86l215 3l-153 163h-240z" />
<glyph unicode="&#xfc;" horiz-adv-x="1148" d="M18 535q-4 -270 102.5 -410.5t317.5 -140.5q92 0 172 33.5t131 93.5v-101h389v1084h-385l-2 -484v2q0 -104 -48 -169.5t-132 -65.5q-78 0 -120 46t-42 132l2 543h-378zM260 1290q0 -57 40 -99t99 -42q54 0 92.5 41t38.5 98t-37.5 94t-93.5 37q-57 0 -98 -38t-41 -91z M616 1290q0 -61 38 -101t102 -40q53 0 92 41t39 98t-38 94t-93 37q-57 0 -98.5 -38t-41.5 -91z" />
<glyph unicode="&#x2000;" horiz-adv-x="995" />
<glyph unicode="&#x2001;" horiz-adv-x="1991" />
<glyph unicode="&#x2002;" horiz-adv-x="995" />
<glyph unicode="&#x2003;" horiz-adv-x="1991" />
<glyph unicode="&#x2004;" horiz-adv-x="663" />
<glyph unicode="&#x2005;" horiz-adv-x="497" />
<glyph unicode="&#x2006;" horiz-adv-x="331" />
<glyph unicode="&#x2007;" horiz-adv-x="331" />
<glyph unicode="&#x2008;" horiz-adv-x="248" />
<glyph unicode="&#x2009;" horiz-adv-x="398" />
<glyph unicode="&#x200a;" horiz-adv-x="110" />
<glyph unicode="&#x2010;" horiz-adv-x="804" d="M18 797l17 -406l751 6l-6 404z" />
<glyph unicode="&#x2011;" horiz-adv-x="804" d="M18 797l17 -406l751 6l-6 404z" />
<glyph unicode="&#x2012;" horiz-adv-x="804" d="M18 797l17 -406l751 6l-6 404z" />
<glyph unicode="&#x2013;" horiz-adv-x="1060" d="M18 797l23 -406l1001 6l-8 404z" />
<glyph unicode="&#x2014;" horiz-adv-x="2084" d="M18 797l45 -406l2003 6l-16 404z" />
<glyph unicode="&#x2022;" horiz-adv-x="649" d="M18 606q0 -78 41 -147q41 -70 110 -110t148 -40q80 0 156 41q72 41 115 111.5t43 152.5t-39 148q-39 68 -107.5 106.5t-150.5 38.5q-88 0 -160 -41t-114 -110.5t-42 -149.5z" />
<glyph unicode="&#x2026;" horiz-adv-x="1445" d="M14 231q0 -98 66.5 -168.5t163.5 -70.5q96 0 158.5 71.5t62.5 176.5q0 102 -61.5 164.5t-151.5 62.5q-63 0 -115 -31q-55 -31 -89 -85t-34 -120zM494 231q0 -98 66.5 -168.5t162.5 -70.5t158.5 71.5t62.5 176.5q0 102 -61.5 164.5t-151.5 62.5q-61 0 -115 -31 q-55 -31 -88.5 -85t-33.5 -120zM973 231q0 -98 66.5 -168.5t162.5 -70.5t158.5 71.5t62.5 176.5q0 102 -61.5 164.5t-151.5 62.5q-61 0 -114 -31q-55 -31 -89 -85t-34 -120z" />
<glyph unicode="&#x202f;" horiz-adv-x="398" />
<glyph unicode="&#x2039;" horiz-adv-x="399" d="M18 567l21 -161l262 -304l80 201l-141 203l141 182l-100 201z" />
<glyph unicode="&#x203a;" horiz-adv-x="399" d="M18 326l82 -201l262 301l19 160l-260 323l-103 -202l142 -179z" />
<glyph unicode="&#x205f;" horiz-adv-x="497" />
<glyph unicode="&#x20ac;" horiz-adv-x="1611" d="M18 1014l35 -402h90q37 -174 144 -317q109 -145 262 -227t328 -82q160 0 313 71q154 72 255 193t126 262l-334 115q-16 -51 -61 -103q-51 -57 -126 -93t-157 -36q-111 0 -197 56.5t-129 160.5h289l-20 379l-248 6q47 78 127 119t182 41q119 0 213 -65.5t127 -157.5 l356 108q-43 168 -147 289q-102 117 -243.5 176.5t-299.5 59.5q-170 0 -323 -72q-154 -72 -263.5 -198t-158.5 -287z" />
<glyph unicode="&#x2122;" horiz-adv-x="950" d="M18 1565l9 -140l112 2v-329l146 12l-2 322l123 4l-11 137zM432 1114h137l-6 232l68 -238h102l60 248l-7 -248l146 4l-33 444h-176l-45 -192l-55 182l-121 15v-2l-70 8v-453z" />
<glyph unicode="&#x25fc;" horiz-adv-x="1095" d="M0 0v1096h1096v-1096h-1096z" />
</font>
</defs>
</svg>
